<mxfile host="65bd71144e">
    <diagram id="NqdAOxDqk3InYnQbrGPQ" name="Page-1">
        <mxGraphModel dx="270" dy="713" grid="1" gridSize="10" guides="1" tooltips="1" connect="1" arrows="1" fold="1" page="1" pageScale="1" pageWidth="827" pageHeight="1169" math="0" shadow="0">
            <root>
                <mxCell id="0"/>
                <mxCell id="1" parent="0"/>
                <mxCell id="aefgE8bY6RCHwo1Kr0a9-48" value="" style="rounded=0;whiteSpace=wrap;html=1;strokeWidth=1;gradientColor=#97d077;strokeColor=#82b366;fillColor=none;" vertex="1" parent="1">
                    <mxGeometry x="500" y="230" width="296" height="220" as="geometry"/>
                </mxCell>
                <mxCell id="4" style="edgeStyle=orthogonalEdgeStyle;rounded=0;orthogonalLoop=1;jettySize=auto;html=1;exitX=0.5;exitY=1;exitDx=0;exitDy=0;entryX=0.5;entryY=0;entryDx=0;entryDy=0;" parent="1" source="2" target="3" edge="1">
                    <mxGeometry relative="1" as="geometry"/>
                </mxCell>
                <mxCell id="2" value="Use !ini in DM Dice Channel&amp;nbsp;" style="ellipse;whiteSpace=wrap;html=1;aspect=fixed;" parent="1" vertex="1">
                    <mxGeometry x="65" y="40" width="80" height="80" as="geometry"/>
                </mxCell>
                <mxCell id="12" style="edgeStyle=orthogonalEdgeStyle;rounded=0;orthogonalLoop=1;jettySize=auto;html=1;entryX=0.5;entryY=0;entryDx=0;entryDy=0;" edge="1" parent="1" source="3" target="9">
                    <mxGeometry relative="1" as="geometry"/>
                </mxCell>
                <mxCell id="3" value="DM asks players to roll init" style="rounded=1;whiteSpace=wrap;html=1;" parent="1" vertex="1">
                    <mxGeometry x="20" y="150" width="170" height="60" as="geometry"/>
                </mxCell>
                <mxCell id="aefgE8bY6RCHwo1Kr0a9-15" value="" style="edgeStyle=orthogonalEdgeStyle;rounded=0;orthogonalLoop=1;jettySize=auto;html=1;" edge="1" parent="1" source="9" target="aefgE8bY6RCHwo1Kr0a9-14">
                    <mxGeometry relative="1" as="geometry"/>
                </mxCell>
                <mxCell id="9" value="each player rolls" style="rounded=1;whiteSpace=wrap;html=1;" vertex="1" parent="1">
                    <mxGeometry x="45" y="250" width="120" height="60" as="geometry"/>
                </mxCell>
                <mxCell id="aefgE8bY6RCHwo1Kr0a9-18" value="" style="edgeStyle=orthogonalEdgeStyle;rounded=0;orthogonalLoop=1;jettySize=auto;html=1;" edge="1" parent="1" source="aefgE8bY6RCHwo1Kr0a9-14" target="aefgE8bY6RCHwo1Kr0a9-17">
                    <mxGeometry relative="1" as="geometry"/>
                </mxCell>
                <mxCell id="aefgE8bY6RCHwo1Kr0a9-14" value="player sends message about roll" style="rounded=1;whiteSpace=wrap;html=1;" vertex="1" parent="1">
                    <mxGeometry x="45" y="340" width="120" height="60" as="geometry"/>
                </mxCell>
                <mxCell id="aefgE8bY6RCHwo1Kr0a9-19" style="edgeStyle=orthogonalEdgeStyle;rounded=0;orthogonalLoop=1;jettySize=auto;html=1;entryX=1;entryY=0.5;entryDx=0;entryDy=0;" edge="1" parent="1" source="aefgE8bY6RCHwo1Kr0a9-17" target="aefgE8bY6RCHwo1Kr0a9-14">
                    <mxGeometry relative="1" as="geometry">
                        <Array as="points">
                            <mxPoint x="235" y="520"/>
                            <mxPoint x="235" y="370"/>
                        </Array>
                    </mxGeometry>
                </mxCell>
                <mxCell id="aefgE8bY6RCHwo1Kr0a9-20" value="no&lt;br&gt;" style="edgeLabel;html=1;align=center;verticalAlign=middle;resizable=0;points=[];" connectable="0" vertex="1" parent="aefgE8bY6RCHwo1Kr0a9-19">
                    <mxGeometry x="-0.4523" y="1" relative="1" as="geometry">
                        <mxPoint y="-67" as="offset"/>
                    </mxGeometry>
                </mxCell>
                <mxCell id="aefgE8bY6RCHwo1Kr0a9-22" value="" style="edgeStyle=orthogonalEdgeStyle;rounded=0;orthogonalLoop=1;jettySize=auto;html=1;" edge="1" parent="1" source="aefgE8bY6RCHwo1Kr0a9-17" target="aefgE8bY6RCHwo1Kr0a9-21">
                    <mxGeometry relative="1" as="geometry"/>
                </mxCell>
                <mxCell id="aefgE8bY6RCHwo1Kr0a9-17" value="DM checks if all players rolled" style="rhombus;whiteSpace=wrap;html=1;rounded=1;" vertex="1" parent="1">
                    <mxGeometry x="40" y="470" width="130" height="100" as="geometry"/>
                </mxCell>
                <mxCell id="aefgE8bY6RCHwo1Kr0a9-24" value="" style="edgeStyle=orthogonalEdgeStyle;rounded=0;orthogonalLoop=1;jettySize=auto;html=1;" edge="1" parent="1" source="aefgE8bY6RCHwo1Kr0a9-21" target="aefgE8bY6RCHwo1Kr0a9-23">
                    <mxGeometry relative="1" as="geometry"/>
                </mxCell>
                <mxCell id="aefgE8bY6RCHwo1Kr0a9-21" value="Combat starts" style="whiteSpace=wrap;html=1;rounded=1;" vertex="1" parent="1">
                    <mxGeometry x="45" y="610" width="120" height="60" as="geometry"/>
                </mxCell>
                <mxCell id="aefgE8bY6RCHwo1Kr0a9-23" value="" style="ellipse;whiteSpace=wrap;html=1;rounded=1;strokeWidth=11;" vertex="1" parent="1">
                    <mxGeometry x="70" y="750" width="70" height="60" as="geometry"/>
                </mxCell>
                <mxCell id="aefgE8bY6RCHwo1Kr0a9-27" value="" style="edgeStyle=orthogonalEdgeStyle;rounded=0;orthogonalLoop=1;jettySize=auto;html=1;" edge="1" parent="1" source="aefgE8bY6RCHwo1Kr0a9-25" target="aefgE8bY6RCHwo1Kr0a9-26">
                    <mxGeometry relative="1" as="geometry"/>
                </mxCell>
                <mxCell id="aefgE8bY6RCHwo1Kr0a9-25" value="" style="ellipse;whiteSpace=wrap;html=1;aspect=fixed;" vertex="1" parent="1">
                    <mxGeometry x="530" y="40" width="80" height="80" as="geometry"/>
                </mxCell>
                <mxCell id="aefgE8bY6RCHwo1Kr0a9-29" value="" style="edgeStyle=orthogonalEdgeStyle;rounded=0;orthogonalLoop=1;jettySize=auto;html=1;entryX=0.5;entryY=0;entryDx=0;entryDy=0;" edge="1" parent="1" source="aefgE8bY6RCHwo1Kr0a9-26" target="aefgE8bY6RCHwo1Kr0a9-36">
                    <mxGeometry relative="1" as="geometry">
                        <Array as="points">
                            <mxPoint x="570" y="230"/>
                        </Array>
                    </mxGeometry>
                </mxCell>
                <mxCell id="aefgE8bY6RCHwo1Kr0a9-26" value="DM calls !ini, timer starts counting down" style="whiteSpace=wrap;html=1;" vertex="1" parent="1">
                    <mxGeometry x="510" y="150" width="120" height="60" as="geometry"/>
                </mxCell>
                <mxCell id="aefgE8bY6RCHwo1Kr0a9-31" value="" style="edgeStyle=orthogonalEdgeStyle;rounded=0;orthogonalLoop=1;jettySize=auto;html=1;" edge="1" parent="1" source="aefgE8bY6RCHwo1Kr0a9-28" target="aefgE8bY6RCHwo1Kr0a9-30">
                    <mxGeometry relative="1" as="geometry"/>
                </mxCell>
                <mxCell id="aefgE8bY6RCHwo1Kr0a9-39" value="No" style="edgeLabel;html=1;align=center;verticalAlign=middle;resizable=0;points=[];" connectable="0" vertex="1" parent="aefgE8bY6RCHwo1Kr0a9-31">
                    <mxGeometry x="-0.247" y="3" relative="1" as="geometry">
                        <mxPoint x="6" y="3" as="offset"/>
                    </mxGeometry>
                </mxCell>
                <mxCell id="aefgE8bY6RCHwo1Kr0a9-34" style="edgeStyle=orthogonalEdgeStyle;rounded=0;orthogonalLoop=1;jettySize=auto;html=1;exitX=0.5;exitY=1;exitDx=0;exitDy=0;entryX=0;entryY=0.5;entryDx=0;entryDy=0;" edge="1" parent="1" source="aefgE8bY6RCHwo1Kr0a9-28" target="aefgE8bY6RCHwo1Kr0a9-32">
                    <mxGeometry relative="1" as="geometry"/>
                </mxCell>
                <mxCell id="aefgE8bY6RCHwo1Kr0a9-41" value="yes" style="edgeLabel;html=1;align=center;verticalAlign=middle;resizable=0;points=[];" connectable="0" vertex="1" parent="aefgE8bY6RCHwo1Kr0a9-34">
                    <mxGeometry x="-0.3619" relative="1" as="geometry">
                        <mxPoint as="offset"/>
                    </mxGeometry>
                </mxCell>
                <mxCell id="aefgE8bY6RCHwo1Kr0a9-51" value="" style="edgeStyle=orthogonalEdgeStyle;rounded=0;orthogonalLoop=1;jettySize=auto;html=1;shape=link;dashed=1;dashPattern=1 4;" edge="1" parent="1" source="aefgE8bY6RCHwo1Kr0a9-28" target="aefgE8bY6RCHwo1Kr0a9-50">
                    <mxGeometry relative="1" as="geometry"/>
                </mxCell>
                <mxCell id="aefgE8bY6RCHwo1Kr0a9-28" value="All players answered" style="rhombus;whiteSpace=wrap;html=1;" vertex="1" parent="1">
                    <mxGeometry x="530" y="355" width="80" height="80" as="geometry"/>
                </mxCell>
                <mxCell id="aefgE8bY6RCHwo1Kr0a9-33" value="" style="edgeStyle=orthogonalEdgeStyle;rounded=0;orthogonalLoop=1;jettySize=auto;html=1;" edge="1" parent="1" source="aefgE8bY6RCHwo1Kr0a9-30" target="aefgE8bY6RCHwo1Kr0a9-32">
                    <mxGeometry relative="1" as="geometry"/>
                </mxCell>
                <mxCell id="aefgE8bY6RCHwo1Kr0a9-42" value="yes" style="edgeLabel;html=1;align=center;verticalAlign=middle;resizable=0;points=[];" connectable="0" vertex="1" parent="aefgE8bY6RCHwo1Kr0a9-33">
                    <mxGeometry x="-0.2891" y="-1" relative="1" as="geometry">
                        <mxPoint as="offset"/>
                    </mxGeometry>
                </mxCell>
                <mxCell id="aefgE8bY6RCHwo1Kr0a9-38" style="edgeStyle=orthogonalEdgeStyle;rounded=0;orthogonalLoop=1;jettySize=auto;html=1;entryX=1;entryY=0.5;entryDx=0;entryDy=0;" edge="1" parent="1" source="aefgE8bY6RCHwo1Kr0a9-30" target="aefgE8bY6RCHwo1Kr0a9-36">
                    <mxGeometry relative="1" as="geometry">
                        <Array as="points">
                            <mxPoint x="730" y="280"/>
                        </Array>
                    </mxGeometry>
                </mxCell>
                <mxCell id="aefgE8bY6RCHwo1Kr0a9-40" value="no" style="edgeLabel;html=1;align=center;verticalAlign=middle;resizable=0;points=[];" connectable="0" vertex="1" parent="aefgE8bY6RCHwo1Kr0a9-38">
                    <mxGeometry x="-0.4138" y="-2" relative="1" as="geometry">
                        <mxPoint x="-2" y="-21" as="offset"/>
                    </mxGeometry>
                </mxCell>
                <mxCell id="aefgE8bY6RCHwo1Kr0a9-30" value="countdown is over?" style="rhombus;whiteSpace=wrap;html=1;" vertex="1" parent="1">
                    <mxGeometry x="690" y="355" width="80" height="80" as="geometry"/>
                </mxCell>
                <mxCell id="aefgE8bY6RCHwo1Kr0a9-45" style="edgeStyle=orthogonalEdgeStyle;rounded=0;orthogonalLoop=1;jettySize=auto;html=1;exitX=0.5;exitY=1;exitDx=0;exitDy=0;entryX=0.5;entryY=0;entryDx=0;entryDy=0;" edge="1" parent="1" source="aefgE8bY6RCHwo1Kr0a9-32" target="aefgE8bY6RCHwo1Kr0a9-43">
                    <mxGeometry relative="1" as="geometry"/>
                </mxCell>
                <mxCell id="aefgE8bY6RCHwo1Kr0a9-32" value="combat starts" style="whiteSpace=wrap;html=1;" vertex="1" parent="1">
                    <mxGeometry x="670" y="525" width="120" height="60" as="geometry"/>
                </mxCell>
                <mxCell id="aefgE8bY6RCHwo1Kr0a9-37" style="edgeStyle=orthogonalEdgeStyle;rounded=0;orthogonalLoop=1;jettySize=auto;html=1;entryX=0.5;entryY=0;entryDx=0;entryDy=0;" edge="1" parent="1" source="aefgE8bY6RCHwo1Kr0a9-36" target="aefgE8bY6RCHwo1Kr0a9-28">
                    <mxGeometry relative="1" as="geometry"/>
                </mxCell>
                <mxCell id="aefgE8bY6RCHwo1Kr0a9-36" value="Player sends dice result in chat" style="rounded=1;whiteSpace=wrap;html=1;absoluteArcSize=1;arcSize=14;strokeWidth=2;" vertex="1" parent="1">
                    <mxGeometry x="520" y="245" width="100" height="70" as="geometry"/>
                </mxCell>
                <mxCell id="aefgE8bY6RCHwo1Kr0a9-43" value="" style="ellipse;whiteSpace=wrap;html=1;rounded=1;strokeWidth=11;" vertex="1" parent="1">
                    <mxGeometry x="695" y="620" width="70" height="60" as="geometry"/>
                </mxCell>
                <mxCell id="aefgE8bY6RCHwo1Kr0a9-49" value="Timer loop" style="text;html=1;strokeColor=none;fillColor=none;align=center;verticalAlign=middle;whiteSpace=wrap;rounded=0;" vertex="1" parent="1">
                    <mxGeometry x="726" y="210" width="70" height="20" as="geometry"/>
                </mxCell>
                <mxCell id="aefgE8bY6RCHwo1Kr0a9-50" value="Needs a list of players and a collection of history after timer started" style="whiteSpace=wrap;html=1;" vertex="1" parent="1">
                    <mxGeometry x="350" y="365" width="120" height="60" as="geometry"/>
                </mxCell>
            </root>
        </mxGraphModel>
    </diagram>
    <diagram id="u-p8zzQhzx_HT6rwTg7c" name="Page-1">
        <mxGraphModel dx="1047" dy="484" grid="1" gridSize="10" guides="1" tooltips="1" connect="1" arrows="1" fold="1" page="1" pageScale="1" pageWidth="827" pageHeight="1169" math="0" shadow="0">
            <root>
                <mxCell id="0"/>
                <mxCell id="1" parent="0"/>
            </root>
        </mxGraphModel>
    </diagram>
</mxfile>